<svg t="1703123456789" class="icon" viewBox="0 0 1024 1024" version="1.1" xmlns="http://www.w3.org/2000/svg" p-id="1234" width="16" height="16">
  <path d="M512 64C264.6 64 64 264.6 64 512s200.6 448 448 448 448-200.6 448-448S759.4 64 512 64z m0 820c-205.4 0-372-166.6-372-372s166.6-372 372-372 372 166.6 372 372-166.6 372-372 372z" fill="currentColor" p-id="1235"></path>
  <path d="M512 140c-205.4 0-372 166.6-372 372s166.6 372 372 372 372-166.6 372-372-166.6-372-372-372z m0 640c-147.9 0-268-120.1-268-268s120.1-268 268-268 268 120.1 268 268-120.1 268-268 268z" fill="currentColor" p-id="1236"></path>
  <path d="M512 204c-169.4 0-308 138.6-308 308s138.6 308 308 308 308-138.6 308-308-138.6-308-308-308z m0 516c-114.9 0-208-93.1-208-208s93.1-208 208-208 208 93.1 208 208-93.1 208-208 208z" fill="currentColor" p-id="1237"></path>
</svg> 