<svg t="1703123456794" class="icon" viewBox="0 0 1024 1024" version="1.1" xmlns="http://www.w3.org/2000/svg" p-id="6234" width="16" height="16">
  <path d="M512 64L128 192v384c0 212.1 171.9 384 384 384s384-171.9 384-384V192L512 64z m312 512c0 172.3-139.7 312-312 312S200 748.3 200 576V246l312-110 312 110v330z" fill="currentColor" p-id="6235"></path>
  <path d="M378.4 475.1a35.91 35.91 0 0 0-50.9 0 35.91 35.91 0 0 0 0 50.9l129.4 129.4 2.1 2.1a33.98 33.98 0 0 0 48.1 0L730.6 434a35.91 35.91 0 0 0 0-50.9c-14.1-14.1-36.8-14.1-50.9 0L483.1 579.7 378.4 475.1z" fill="currentColor" p-id="6236"></path>
</svg> 