<svg t="1703123456790" class="icon" viewBox="0 0 1024 1024" version="1.1" xmlns="http://www.w3.org/2000/svg" p-id="2234" width="16" height="16">
  <path d="M832 64H192c-17.7 0-32 14.3-32 32v832c0 17.7 14.3 32 32 32h640c17.7 0 32-14.3 32-32V96c0-17.7-14.3-32-32-32z m-40 824H232V136h560v752z" fill="currentColor" p-id="2235"></path>
  <path d="M484 366h56c4.4 0 8-3.6 8-8v-56c0-4.4-3.6-8-8-8h-56c-4.4 0-8 3.6-8 8v56c0 4.4 3.6 8 8 8zM484 566h56c4.4 0 8-3.6 8-8v-56c0-4.4-3.6-8-8-8h-56c-4.4 0-8 3.6-8 8v56c0 4.4 3.6 8 8 8zM484 766h56c4.4 0 8-3.6 8-8v-56c0-4.4-3.6-8-8-8h-56c-4.4 0-8 3.6-8 8v56c0 4.4 3.6 8 8 8z" fill="currentColor" p-id="2236"></path>
</svg> 