<svg t="1703123456792" class="icon" viewBox="0 0 1024 1024" version="1.1" xmlns="http://www.w3.org/2000/svg" p-id="4234" width="16" height="16">
  <path d="M544 768v128h192a32 32 0 1 1 0 64H288a32 32 0 1 1 0-64h192V768H64V128a32 32 0 0 1 32-32h832a32 32 0 0 1 32 32v640h-416z m240-608H240v512h544V160z" fill="currentColor" p-id="4235"></path>
  <path d="M384 288a32 32 0 0 1 32 32v192a32 32 0 1 1-64 0V320a32 32 0 0 1 32-32z m128 0a32 32 0 0 1 32 32v192a32 32 0 1 1-64 0V320a32 32 0 0 1 32-32z m128 0a32 32 0 0 1 32 32v192a32 32 0 1 1-64 0V320a32 32 0 0 1 32-32z" fill="currentColor" p-id="4236"></path>
</svg> 