<svg t="1703123456795" class="icon" viewBox="0 0 1024 1024" version="1.1" xmlns="http://www.w3.org/2000/svg" p-id="7234" width="16" height="16">
  <path d="M512 64C264.6 64 64 264.6 64 512s200.6 448 448 448 448-200.6 448-448S759.4 64 512 64z m0 820c-205.4 0-372-166.6-372-372s166.6-372 372-372 372 166.6 372 372-166.6 372-372 372z" fill="currentColor" p-id="7235"></path>
  <path d="M512 384c-35.3 0-64 28.7-64 64s28.7 64 64 64 64-28.7 64-64-28.7-64-64-64z m0 160c-53 0-96 43-96 96s43 96 96 96 96-43 96-96-43-96-96-96z" fill="currentColor" p-id="7236"></path>
</svg> 